<svg xmlns="http://www.w3.org/2000/svg" viewBox="0 0 512 512">
  <defs>
    <linearGradient id="bg" x1="0%" y1="0%" x2="100%" y2="100%">
      <stop offset="0%" style="stop-color:#0a0a0f"/>
      <stop offset="100%" style="stop-color:#12121a"/>
    </linearGradient>
    <linearGradient id="accent" x1="0%" y1="0%" x2="100%" y2="100%">
      <stop offset="0%" style="stop-color:#8b5cf6"/>
      <stop offset="50%" style="stop-color:#a78bfa"/>
      <stop offset="100%" style="stop-color:#38bdf8"/>
    </linearGradient>
  </defs>
  
  <!-- Background -->
  <rect width="512" height="512" fill="url(#bg)" rx="128"/>
  
  <!-- Glow effect -->
  <circle cx="256" cy="256" r="180" fill="url(#accent)" opacity="0.12"/>
  
  <!-- M Symbol -->
  <path d="M140 360 L140 180 L140 180 C140 160 150 150 170 150 L200 150 C220 150 230 160 240 180 L256 220 L272 180 C282 160 292 150 312 150 L342 150 C362 150 372 160 372 180 L372 360 L320 360 L320 220 L280 300 L232 300 L192 220 L192 360 Z" 
        fill="url(#accent)"/>
  
  <!-- Decorative dots -->
  <circle cx="100" cy="256" r="8" fill="#38bdf8" opacity="0.6"/>
  <circle cx="412" cy="256" r="8" fill="#8b5cf6" opacity="0.6"/>
  <circle cx="256" cy="100" r="6" fill="#a78bfa" opacity="0.4"/>
  <circle cx="256" cy="412" r="6" fill="#38bdf8" opacity="0.4"/>
</svg>
